# xmcd CD database file
#
# Track frame offsets:
#	150
#	17797
#	34562
#	49845
#	63502
#	82452
#	100117
#	117910
#	132467
#	158762
#	176075
#	192697
#	209240
#	228675
#
# Disc length: 3283 seconds
#
# Revision: 2
# Processed by: cddbd v1.5.2PL0 Copyright (c) Steve Scherf et al.
# Submitted via: CDex 1.70beta2
#
DISCID=d50cd10e
DTITLE=André Hazes - Kerstfeest Voor Ons
DYEAR=1992
DGENRE=Nederlandstalig
TTITLE0=Ik Steek Voor Ons De Kaarsen Aan
TTITLE1=Waarom ('92)
TTITLE2=Voor Mij Geen Kerstdiner
TTITLE3=Eenzame Kers (1992 Re-Recording)
TTITLE4=Kerstfeest Voor Ons
TTITLE5=Slaap Zacht
TTITLE6=Bel Me Nou
TTITLE7=Dan Is 'T Kerstfeest Zo Echt
TTITLE8=Met Kerst Ben Ik Alleen
TTITLE9=Dan Word Ik Klein
TTITLE10=Wat Kan Ik Doen Om Dit Te Helen
TTITLE11=M'n Oude Huis
TTITLE12=Ik Zal Vannavond Niet Alleen Zijn
TTITLE13=Nog Mooier Dan Voorheen
EXTD=stefan YEAR: 1992
EXTT0=
EXTT1=
EXTT2=
EXTT3=
EXTT4=
EXTT5=
EXTT6=
EXTT7=
EXTT8=
EXTT9=
EXTT10=
EXTT11=
EXTT12=
EXTT13=
PLAYORDER=
